<svg id="Layer_1" data-name="Layer 1" xmlns="http://www.w3.org/2000/svg" viewBox="0 0 430.04 430.04"><defs><style>.cls-1{fill:none;}.cls-1,.cls-3{stroke:#fff;stroke-miterlimit:10;stroke-width:5px;}.cls-2,.cls-3{fill:#fff;}</style></defs><circle class="cls-1" cx="215.02" cy="215.02" r="212.52"/><path class="cls-2" d="M280.93,399.08c-2.07-2.34-6.38-2.57-9.29-3.65-13.42-1.83-8.19-22.12-9.8-32a163.7,163.7,0,0,0-7.95-49.4,41.75,41.75,0,0,1-2.2-16,234.6,234.6,0,0,0-2.49-50.78c-.95-9.85-2.82-19.14-8.42-27.4-4.94-20.26,9.27-30.47,9.56-49.33.75-29.57,42.4,7.2,63.42-47.25,1.55,1.69,1.7,5.92,4.75,4.53.71-5.86-.07-8.29,3.91-13.44,0-2.46.71-5.32-.35-7.29-2.35-5-.38-9.83-.24-14.88a19,19,0,0,1,5.31-14H305.68c7.45,6.13,5.22,15.82,6.63,24.34-.29,3.48-3.14,6.26-2.07,10-.91,6.39-9.28,9.49-13.13,14.4-3.92,3.56-5.76,8.48-8.67,12.94-9.79-4.9-20.7.18-31-1.58-8.58-2.71-17,3-25.37-.13-8.18-2.67-6.89-7-5.15-12.89,2.16-9.24,6.76-24.66-6.33-27.89-13.82-2.53-21.18,5-18.79,18.58,4.42,20.58,5.15,22.37-17.39,24-12.14,1.45-19.92,13.24-26.9,22.06-3.78,5-5.95,11.67-10.25,16.08-14.71,4-24.68,16.37-36.08,25.62-3.42,3.9-4.6.2-8.42.25-1.65.06-2.08-.8-2.26-2.1q-4.42-30.64-8.72-61.3c0-5.53,4.31-10.58,1.79-16.18C90.13,114.44,87.18,104,83,94.27c-.7,16-6,33.25,4.62,46.83,3.15,20,5.48,40.07,8.76,60,1.37,7.34-9.09,15.78.74,20.68,2.09.74,2.47,1.89,2.72,3.61q4,28.44,8.1,56.86c5.7,39.76,11.54,79.12,17.14,119h-13.7c23.42,16.47,52.9,8.09,79.8,9.95V401.05H174.87c.47-26.8,16-50.18,17.61-76.62,1-16.78,10.61-31.26,13.13-48,.69-2.92,4.19-11.63,9.87-11.69,8.14.42,8.28,13.48,10.44,19.57,3.51,12.86,10.77,24.89,11.67,38.34,1.29,27.21,17.1,51.08,17.81,78.6H244.09v9.89c25.7-1.53,53.37,5.93,75.57-10C313.67,400.19,281.26,403.53,280.93,399.08ZM190.05,220.81c-15.4,22.51-11.6,51.77-11.57,77.95a35.64,35.64,0,0,1-1.56,13c-6.51,19.31-8.78,39.11-8.67,59.27-1,14.17,2,23.25-15.35,26-1.36.5-3.22,1.11-3.7,2.16-2.42,4.2-14.82,1-19.93,2-8.16-59.95-18.66-120.19-25.2-180,7.87-13.15,24.11-15.37,36.59-22.66,14-8.45,29.92-15.85,38.37-30.46C180.78,191.63,194.23,196.76,190.05,220.81Z" transform="translate(-0.46 -0.98)"/><path class="cls-2" d="M320.13,37.5c-4.9,5.93-8.31,11.74-9.87,18.43-1.61,6.86-1.14,13.39,3.32,19.35.3-4.61.44-9.19,4.27-12.85,1.54,4.4,3,8.57,4.42,12.66,3.56-4.56,3.39-10,2-15.38C322.31,52.58,319.63,45.61,320.13,37.5Z" transform="translate(-0.46 -0.98)"/><path class="cls-2" d="M316,76.13h3.49c-.74-2.65-1.44-5.19-2.29-8.26C316.71,70.91,316.34,73.47,316,76.13Z" transform="translate(-0.46 -0.98)"/><path class="cls-3" d="M215.48,427.2a213,213,0,0,0,99-24.23H116.51A213,213,0,0,0,215.48,427.2Z" transform="translate(-0.46 -0.98)"/></svg>