<svg width="200" height="200" viewBox="0 0 200 200" fill="none" xmlns="http://www.w3.org/2000/svg">
	<!-- <rect width="200" height="200" rx="16" fill="#E9D7FE"/> -->
	<path d="M129.272 32.5333C136.739 27.0666 160.605 15.4666 165.805 14.7999C168.072 14.5333 170.605 14.1333 171.539 13.9999C172.472 13.9999 175.272 14.7999 177.939 15.8666C183.672 18.2666 187.139 25.3333 185.805 32.3999C183.805 43.5999 166.2 73.7 155 88.5C113.661 135.067 131.82 116.959 97 148.5L75.0052 165.067C61.8052 174.667 43.5386 183.867 33.9386 185.867C27.4052 187.2 25.8052 187.067 21.4052 184.933C11.0052 179.867 11.5386 166.667 23.1386 144.933C26.3386 138.933 30.6052 131.867 32.6052 129.2L36.3386 124.267L38.0719 128.8C39.8052 133.2 39.6719 133.733 33.2719 144.4C25.6719 157.067 22.0719 166.533 22.7386 172.8C23.1386 177.2 23.2719 177.2 29.8052 177.2C41.6719 177.067 66.6052 162.667 91.6719 141.333C106.472 128.8 136.739 97.6 147.805 83.6C165.672 61.0666 177.672 38.5333 176.872 28.7999C176.472 24.2666 176.072 23.8666 172.072 23.4666C165.805 22.7999 156.339 26.3999 143.672 33.9999C132.872 40.3999 132.472 40.5333 127.939 38.7999L123.272 36.9333L129.272 32.5333Z" fill="#fff"/>
	<path fill-rule="evenodd" clip-rule="evenodd" d="M55.2927 136.271C36.9004 113.647 38.7345 79.9524 60.4717 59.3331C68.205 51.9998 75.2717 47.9998 85.5383 45.1998C104.872 39.9998 126.472 46.1331 141.005 61.0664L146.872 67.0664L139.138 77.4664C129.138 90.9331 90.205 129.866 76.7383 139.866L67.117 147.021C62.6928 144 58.7121 140.378 55.2927 136.271Z" fill="#fff"/>
	<path fill-rule="evenodd" clip-rule="evenodd" d="M80.4879 153.783C86.4391 155.867 92.8372 157 99.5 157C131.256 157 157 131.256 157 99.5C157 93.1905 155.984 87.1183 154.106 81.4383L80.4879 153.783Z" fill="#fff"/>
</svg>
